<svg width="159" height="383" viewBox="0 0 159 383" fill="none" xmlns="http://www.w3.org/2000/svg">
<path d="M3.54574 364.434C-1.15028 363.72 -0.960339 358.14 2.8122 357.885C14.4245 357.02 29.0759 349.01 36.5096 338.616C37.0687 337.853 37.5624 339.356 37.4921 339.801C36.4507 346.305 28.7025 358.35 22.6115 358.743C106.577 353.293 128.328 290.071 126.337 216.368C126.396 178.42 117.305 140.911 116.879 102.996C117.246 65.7943 127.358 24.5519 157.414 0.239955C157.83 -0.117852 158.423 0.0206631 158.592 0.396462C158.745 0.734725 158.514 1.28161 158.2 1.54986C129.408 26.2941 120.501 66.3445 121.156 102.917C122.617 140.905 132.945 177.896 133.744 216.067C138.814 293.764 114.75 363.694 23.7118 362.541C26.3709 362.581 37.8326 373.361 38.2059 381.967C38.2391 382.732 36.8815 383.52 36.7127 382.55C34.7674 373.06 12.9967 365.855 3.54574 364.434Z" fill="white"/>
<path d="M113.644 203.06C114.836 234.013 110.84 279.88 96.117 306.72C96.0872 306.805 96.087 306.897 96.1163 306.982C96.1456 307.067 96.2029 307.14 96.2786 307.188C96.3544 307.237 96.4444 307.258 96.5339 307.249C96.6234 307.24 96.7073 307.201 96.7719 307.139C114.75 281.379 118.975 234.144 114.403 203.001C114.375 202.918 114.321 202.847 114.248 202.799C114.175 202.75 114.088 202.728 114 202.735C113.913 202.741 113.831 202.777 113.766 202.836C113.701 202.895 113.658 202.974 113.644 203.06Z" fill="white"/>
<path d="M111.581 194.257C111.648 194.371 111.749 194.461 111.87 194.516C111.99 194.572 112.125 194.589 112.255 194.566C112.386 194.544 112.506 194.482 112.601 194.389C112.696 194.297 112.76 194.177 112.786 194.047C112.786 193.667 112.786 193.281 112.746 192.901C112.667 191.643 112.519 190.39 112.301 189.148C112.084 187.906 111.796 186.677 111.436 185.467C111.325 185.094 111.207 184.727 111.083 184.36C111.016 184.244 110.915 184.151 110.793 184.095C110.672 184.038 110.536 184.019 110.404 184.042C110.272 184.065 110.15 184.128 110.054 184.222C109.959 184.317 109.895 184.438 109.871 184.57C109.871 184.963 109.871 185.349 109.917 185.736C110.073 188.255 110.512 190.749 111.227 193.17C111.332 193.563 111.456 193.923 111.581 194.257Z" fill="white"/>
</svg>
