<svg width="484" height="51" viewBox="0 0 484 51" fill="none" xmlns="http://www.w3.org/2000/svg">
<path d="M88.4269 49.8979C63.2339 48.3952 42.6215 40.3495 35.4644 36.5145C35.4644 34.1665 56.6971 43.089 84.3712 45.4367C120.157 48.4727 144.491 47.3151 143.298 48.0195C142.105 48.7239 119.918 51.7762 88.4269 49.8979Z" fill="#414854"/>
<path d="M156.181 44.028C151.219 44.2158 149.978 45.4367 150.455 46.1411C150.932 46.8455 151.696 47.0333 156.658 46.8455C161.62 46.6577 162.861 45.4367 162.861 44.4975C162.861 43.5584 161.143 43.8401 156.181 44.028Z" fill="#414854"/>
<path fill-rule="evenodd" clip-rule="evenodd" d="M133.994 28.0619C68.9118 30.3159 17.7306 11.6261 0.633074 2.46905C-1.99102 3.87783 34.2714 24.5399 102.502 31.5838C144.783 35.9486 201.721 28.7732 259.351 21.5104C294.723 17.0528 330.356 12.5622 363.021 10.6869C399.356 8.60088 419.548 10.3409 431.013 14.1083C412.818 25.8343 435.383 42.7785 448.906 29.2358C453.606 24.5289 449.711 18.0827 445.089 13.7393C446.894 13.4798 453.097 10.7495 460.596 9.98537C471.637 8.86028 483.639 10.4521 483.499 9.27814C483.134 6.22579 451.711 6.99409 442.325 9.98537C430.96 3.92016 410.263 -0.169071 384.015 0.590721C362.468 1.21442 326.94 6.11812 286.974 11.6343C236.667 18.5778 179.329 26.4917 133.994 28.0619ZM436.737 16.7879C443.604 20.1159 447.336 28.932 436.737 28.4513C426.279 27.977 429.223 19.6224 436.737 16.7879Z" fill="#414854"/>
</svg>
