<svg width="1920" height="450" viewBox="0 0 1920 450" fill="none" xmlns="http://www.w3.org/2000/svg">
<g clip-path="url(#clip0_34_739)">
<path d="M1920 287.532C1883 297.088 1846.14 307.241 1808.99 316.2C1762.74 327.548 1716.48 338.298 1670.08 348.75C1658.14 351.438 1645.76 352.632 1633.52 354.424C1631.88 354.722 1630.24 354.573 1628.6 354.573C1623.52 354.274 1620.09 351.885 1618.9 347.854C1617.56 343.524 1619.05 339.045 1623.52 336.357C1628.45 333.371 1633.67 330.534 1639.19 328.742C1666.2 320.082 1693.06 311.123 1720.21 303.359C1784.67 285.143 1849.87 270.212 1915.37 256.027C1916.87 255.728 1918.36 255.728 1919.7 255.579C1920 266.33 1920 276.931 1920 287.532Z" fill="black" fill-opacity="0.1"/>
<path d="M1920 74.3142C1907.77 78.7936 1895.23 81.9291 1882.25 79.0922C1875.24 77.5991 1868.67 74.3142 1861.36 71.6266C1861.21 71.9252 1860.91 73.1197 1860.62 74.3142C1855.69 91.1865 1851.22 108.208 1845.84 125.08C1841.82 138.07 1835.55 150.463 1825.1 159.571C1819.14 164.797 1812.12 169.575 1804.96 172.86C1792.88 178.385 1780.94 174.204 1773.33 163.304C1772.58 162.11 1771.69 160.915 1770.05 158.377C1764.97 168.679 1759.9 177.788 1755.87 187.344C1753.19 193.465 1751.84 200.334 1749.9 206.754C1749.16 209.143 1748.86 211.532 1747.96 213.772C1745.88 218.848 1741.55 221.685 1736.62 221.536C1731.7 221.387 1726.93 218.251 1725.73 213.175C1724.69 208.247 1724.24 202.872 1724.99 197.945C1728.72 173.159 1738.41 150.911 1754.68 131.65C1756.62 129.261 1758.86 127.021 1761.39 125.23C1770.79 118.511 1782.73 122.094 1786.76 132.994C1788.25 136.876 1788.7 141.206 1789.15 145.237C1790.64 157.182 1794.96 159.124 1804.66 151.807C1814.06 144.79 1819.88 135.383 1822.27 124.334C1826.89 102.982 1831.07 81.6305 1835.25 60.1295C1836.15 55.3516 1836.74 50.4242 1837.79 45.7956C1838.53 42.5107 1839.73 39.2258 1841.52 36.3889C1847.49 26.9822 1859.42 27.2809 1865.24 36.6875C1867.03 39.5245 1868.52 42.66 1870.46 45.3476C1874.49 51.3201 1880.31 54.4557 1887.47 53.7091C1892.55 53.2612 1897.62 52.3653 1902.54 51.0215C1908.36 49.3791 1914.03 46.9901 1919.85 45.049C1920 54.7543 1920 64.6089 1920 74.3142Z" fill="black" fill-opacity="0.1"/>
<path d="M1920 194.809C1889.11 200.035 1861.81 179.131 1858.23 147.029C1857.63 141.206 1857.78 135.084 1858.23 129.261C1858.38 126.125 1859.42 122.841 1860.91 120.004C1863.6 114.927 1868.08 112.239 1873.89 112.389C1879.56 112.538 1883.89 115.226 1886.28 120.153C1887.92 123.587 1888.52 127.619 1889.26 131.501C1890.31 137.175 1890.9 142.998 1892.1 148.672C1893.44 154.943 1897.47 159.123 1903.74 160.318C1909.11 161.363 1914.63 161.662 1920.15 162.259C1920 173.009 1920 183.909 1920 194.809Z" fill="black" fill-opacity="0.1"/>
<path d="M1920 5.92903C1907.76 4.58522 1897.32 -0.043457 1889.86 -10.1967C1886.58 -14.6761 1885.53 -19.7527 1886.13 -25.2772C1888.07 -40.6564 1904.33 -55.1396 1919.85 -55.1396C1919.85 -46.9275 1919.85 -38.8646 1919.85 -30.6524C1918.21 -29.6073 1916.57 -28.4128 1914.48 -27.069C1917.02 -26.1731 1918.36 -25.5758 1919.85 -24.9786C1920 -14.676 1920 -4.37351 1920 5.92903Z" fill="black" fill-opacity="0.1"/>
<path d="M1065.49 478.95C1068.47 478.353 1070.56 478.204 1072.35 477.457C1079.51 474.471 1086.83 472.082 1093.54 468.349C1110.7 458.793 1127.56 448.64 1144.72 438.934C1153.07 434.156 1161.43 429.229 1170.23 425.496C1180.08 421.166 1188.44 423.107 1193.66 429.528C1198.88 435.948 1198.88 444.16 1192.91 453.268C1172.32 485.371 1161.28 521.056 1153.82 557.787C1149.49 579.288 1146.96 601.087 1143.82 622.887C1142.63 630.651 1139.79 637.072 1132.33 640.207C1124.87 643.343 1117.71 641.7 1111.89 636.474C1088.77 616.168 1061.46 610.195 1031.62 612.734C992.527 616.019 957.016 629.755 923.742 649.614C891.066 669.024 863.164 693.81 840.485 724.569C840.037 725.166 839.291 725.912 839.142 726.51C838.545 729.944 836.009 731.736 833.174 731.288C830.637 730.989 827.355 729.197 826.459 727.107C824.967 723.523 823.923 719.044 824.669 715.461C826.012 709.04 828.101 702.62 831.085 696.797C846.752 666.337 868.237 640.954 897.034 621.991C942.393 592.129 992.079 577.048 1046.39 577.795C1068.18 578.093 1089.21 582.722 1108.91 592.427C1109.8 592.875 1110.7 593.174 1112.19 593.771C1116.82 556.294 1123.23 519.563 1137.11 484.176C1135.92 484.773 1134.57 485.371 1133.38 486.117C1121.44 492.388 1109.51 499.107 1097.42 505.08C1087.87 509.858 1077.72 513.441 1066.83 514.188C1045.2 515.681 1030.57 501.944 1030.72 480.294C1030.87 465.512 1036.1 452.223 1042.36 439.084C1043.85 435.948 1045.5 432.813 1047.58 428.781C1045.2 429.528 1043.71 430.125 1042.21 430.573C1028.64 434.156 1015.06 438.188 1001.33 440.875C994.914 442.219 987.752 441.622 981.187 440.428C964.625 437.591 953.435 424.75 951.794 408.027C950.898 399.068 951.794 390.259 954.778 381.897C958.508 371.147 962.238 360.396 967.013 350.094C988.648 303.21 1021.32 264.986 1061.01 232.585C1066.98 227.658 1073.25 223.029 1079.22 218.251C1080.26 217.505 1081.16 216.609 1081.9 215.116C1077.58 216.011 1073.25 216.907 1068.92 218.102C1032.66 227.359 999.689 243.783 967.609 262.746C914.193 294.251 869.133 334.864 833.024 385.481C815.567 410.117 801.989 436.396 795.424 465.96C793.186 476.113 791.694 486.565 793.186 497.017C794.231 503.437 796.767 508.962 801.542 513.292C806.764 517.921 813.031 518.667 818.701 514.636C821.983 512.247 824.967 509.26 827.056 505.976C833.472 495.822 836.755 484.773 834.964 472.679C834.516 469.543 834.218 466.259 834.367 462.974C834.815 452.82 841.678 445.355 850.929 444.31C860.031 443.414 868.387 449.088 870.774 458.793C872.117 464.318 872.564 469.991 873.161 475.665C874.355 485.968 874.653 496.27 876.444 506.424C878.98 521.952 885.098 536.286 894.647 548.978C896.885 551.814 896.438 553.308 892.857 554.651C883.158 558.086 874.206 555.995 867.342 548.978C861.075 542.557 856.301 534.793 850.929 527.477C850.034 526.133 849.288 524.64 848.244 522.549C846.304 524.789 844.663 526.73 842.872 528.372C830.936 539.869 816.91 545.842 800.348 542.258C786.621 539.422 777.072 530.612 770.059 518.816C763.494 507.618 761.405 495.225 761.256 482.534C761.107 460.585 766.03 439.681 774.834 419.673C780.653 406.384 787.069 393.245 795.126 381.3C858.39 287.98 944.781 226.613 1053.4 196.75C1066.09 193.316 1079.07 191.226 1092.35 191.226C1102.49 191.226 1111.74 194.51 1120.99 198.094C1124.87 199.587 1126.81 203.021 1126.52 207.202C1126.07 211.98 1123.98 216.011 1119.5 218.4C1118.01 219.147 1116.52 219.595 1115.18 220.64C1069.52 258.117 1029.08 300.074 1001.78 353.229C995.66 365.174 991.035 377.866 986.26 390.259C984.768 393.991 984.47 398.172 984.321 402.204C984.022 406.683 985.664 408.624 990.289 408.773C996.556 408.773 1002.97 408.923 1008.79 407.579C1021.03 404.593 1033.11 401.158 1045.05 397.127C1054.3 393.992 1063.1 389.661 1072.05 385.779C1076.68 383.838 1081.31 381.748 1085.93 380.105C1094.88 376.821 1102.34 378.463 1106.97 384.436C1111.59 390.408 1111.45 398.172 1106.07 405.936C1101 413.103 1095.63 420.121 1090.26 427.139C1080.56 439.83 1072.95 453.716 1068.32 469.096C1066.98 471.783 1066.53 474.919 1065.49 478.95Z" fill="black" fill-opacity="0.1"/>
<path d="M1587.12 631.398C1589.65 626.918 1591.74 622.887 1594.13 619.005C1605.47 600.192 1619.35 583.17 1636.21 569.135C1652.17 555.846 1668.59 543.154 1685.74 531.508C1695.59 524.789 1707.08 520.309 1717.97 515.084C1735.28 506.722 1752.44 498.062 1770.2 490.596C1786.76 483.728 1802.57 475.516 1817.64 465.96C1829.88 458.345 1839.58 448.192 1845.55 434.903C1849.57 425.944 1851.36 416.836 1847.63 407.28C1845.55 402.204 1842.71 397.874 1836.74 397.874C1830.03 397.874 1824.21 400.561 1820.48 406.235C1819.58 407.579 1820.18 410.416 1820.78 412.357C1821.97 415.94 1824.21 419.225 1825.25 422.809C1827.49 430.125 1822.72 434.903 1815.26 432.962C1800.19 429.08 1790.94 411.312 1797.5 397.127C1804.81 381.3 1818.24 373.685 1835.25 373.237C1851.51 372.789 1862.56 381.598 1868.97 396.231C1875.39 410.714 1874.94 425.347 1869.12 439.83C1861.21 459.838 1848.38 476.262 1830.77 488.357C1815.41 498.809 1799.14 507.767 1783.18 517.174C1780.19 518.966 1779 520.309 1779.75 524.042C1786.91 555.249 1793.92 586.455 1800.63 617.81C1803.62 631.696 1805.71 645.881 1807.95 659.916C1808.39 662.903 1808.24 666.188 1807.8 669.174C1806.6 675.743 1800.48 678.282 1795.71 673.653C1792.13 670.219 1789.29 665.59 1787.35 660.962C1782.58 649.017 1777.95 636.922 1774.22 624.679C1766.02 596.907 1758.41 568.836 1750.5 540.915C1749.9 538.973 1749.46 537.032 1748.86 534.345C1739.46 539.272 1730.36 543.901 1721.55 548.828C1720.66 549.276 1720.36 551.964 1720.66 553.457C1724.99 577.645 1729.61 601.685 1733.94 625.873C1737.37 644.836 1740.65 663.798 1743.94 682.761C1744.68 686.942 1744.53 691.421 1744.38 695.751C1744.23 699.633 1742.44 702.47 1738.41 703.516C1734.83 704.411 1731.25 702.918 1729.46 698.887C1727.52 694.706 1725.73 690.376 1724.54 686.046C1713.94 647.523 1703.35 608.852 1692.76 570.329C1692.46 569.433 1692.16 568.537 1691.86 567.343C1691.12 567.641 1690.37 567.641 1689.92 568.089C1669.03 583.17 1649.04 598.997 1633.07 619.453C1623.52 631.696 1615.32 644.836 1610.25 659.618C1609.35 662.305 1609.65 665.441 1609.8 668.278C1609.95 674.549 1611.29 680.969 1610.39 687.091C1609.05 696.498 1602.04 702.47 1593.83 702.918C1585.63 703.217 1578.46 697.692 1576.08 688.435C1574.88 683.956 1574.44 679.028 1574.73 674.4C1575.18 669.323 1573.69 665.441 1570.56 661.708C1556.83 644.985 1540.71 630.95 1519.98 623.932C1466.86 605.716 1414.34 605.417 1363.46 631.846C1343.16 642.447 1325.86 656.482 1311.53 674.25C1297.51 691.72 1289.45 711.728 1287.21 734.125C1285.87 746.965 1288.11 759.358 1294.37 770.706C1303.18 786.682 1314.96 799.523 1331.53 808.183C1357.04 821.472 1402.85 805.944 1406.13 764.136C1406.73 756.073 1405.98 748.16 1403.29 740.545C1396.73 722.777 1378.53 716.954 1363.01 728.003C1356 732.93 1350.92 739.649 1348.09 747.861C1346.15 753.386 1346.6 758.164 1350.77 762.494C1351.97 763.688 1352.27 765.629 1353.16 767.272C1351.52 767.72 1350.03 768.616 1348.39 768.765C1331.97 769.959 1319.14 757.865 1318.55 740.396C1318.1 727.853 1321.98 716.356 1330.48 707.099C1344.66 691.57 1362.56 683.956 1383.45 685.001C1404.19 686.195 1420.16 696.05 1430.45 714.117C1449.25 747.264 1442.98 808.482 1394.94 831.924C1361.96 848.05 1330.18 846.258 1300.04 825.802C1265.43 802.36 1243.2 763.39 1256.92 709.787C1266.92 670.667 1289.15 640.058 1321.53 616.914C1373.01 580.333 1430 568.537 1491.92 581.378C1510.72 585.26 1528.78 591.233 1545.94 600.042C1559.81 607.209 1572.05 616.467 1583.09 627.516C1584.43 628.859 1585.63 630.054 1587.12 631.398Z" fill="black" fill-opacity="0.1"/>
<path d="M776.923 72.5224C776.773 71.3279 776.773 70.4321 776.624 69.6855C773.192 56.0981 770.059 42.5107 766.18 29.0726C758.869 3.39088 743.5 -17.2142 723.656 -34.2358C690.382 -62.7544 637.712 -60.3654 607.871 -29.6071C604.439 -26.1729 601.455 -22.1415 599.067 -17.9608C593.248 -7.95684 594.442 1.74844 602.648 9.96062C615.033 22.2042 630.401 25.6384 647.261 22.8015C649.052 22.5028 650.842 21.4577 652.484 20.5618C655.169 19.0687 655.766 17.4262 653.976 14.2907C651.29 9.8113 648.604 5.03332 647.411 -0.0432968C646.366 -4.07472 646.515 -8.7034 647.56 -12.7348C649.201 -19.0059 653.976 -22.5894 660.69 -23.1867C666.658 -23.7839 672.328 -20.3497 675.163 -14.5266C682.325 0.553955 689.636 15.4852 696.649 30.5657C698.44 34.4478 699.932 38.6286 700.976 42.8093C701.573 45.049 701.424 47.7366 700.827 49.9763C699.633 55.5008 695.754 57.4419 690.83 54.9036C687.846 53.2612 685.011 50.8722 682.624 48.4832C678.595 44.3024 674.716 39.9724 671.135 35.9409C645.023 51.4694 619.807 46.0942 595.785 33.2533C567.734 18.1728 559.528 -12.1376 575.94 -39.4617C593.398 -68.7269 619.807 -85.0019 654.125 -87.6895C677.551 -89.6306 700.081 -85.4499 721.865 -77.0884C735.294 -71.8625 747.081 -64.0982 757.376 -53.945C780.653 -30.9509 796.618 -4.07472 803.332 28.326C807.958 50.5735 812.583 72.6717 813.18 95.5165C813.329 101.788 812.434 108.208 811.091 114.33C810.345 117.764 808.256 121.049 805.869 123.736C801.243 128.962 794.529 128.067 791.694 121.646C789.008 115.524 787.218 109.104 785.278 102.833C782.145 92.6796 782.294 92.3809 771.7 93.1275C729.326 96.1137 687.1 99.2493 644.725 102.534C619.957 104.475 595.188 106.267 570.718 109.552C555.35 111.493 540.28 115.972 525.061 119.108C522.076 119.705 520.584 121.198 519.838 124.334C517.003 135.532 511.781 145.835 504.918 154.943C494.921 168.232 484.029 180.923 473.584 193.913C471.943 195.854 470.302 197.795 468.959 200.483C551.172 191.524 633.684 191.823 716.941 189.434C715.151 185.253 713.957 182.118 712.614 179.131C710.376 174.055 707.69 169.127 705.602 164.051C704.408 161.065 703.662 157.78 703.363 154.644C702.767 146.88 706.944 139.862 713.659 136.727C720.522 133.442 728.878 134.636 734.249 140.459C737.681 144.192 740.367 148.821 742.307 153.45C750.065 171.367 753.945 190.33 756.929 209.591C758.272 217.952 760.062 226.165 761.256 234.377C761.853 238.707 762.151 243.336 761.703 247.666C761.107 252.892 757.376 254.982 752.303 253.937C746.186 252.742 741.71 248.86 738.875 243.634C734.249 235.273 730.221 226.463 726.043 217.803C725.297 216.31 725.148 214.668 722.462 214.966C704.408 216.609 686.354 218.699 668.15 219.147C605.185 220.789 542.518 225.866 479.851 231.839C469.257 232.884 458.514 232.436 447.771 232.286C444.787 232.286 441.654 231.241 438.67 230.196C428.374 226.165 423.45 216.161 427.181 205.709C428.673 201.379 430.911 197.198 433.597 193.615C440.908 184.208 448.816 175.249 456.574 166.141C464.035 157.332 471.644 148.672 478.657 139.564C484.924 131.351 489.4 122.094 490.892 111.493C492.533 100.742 499.248 93.8741 509.692 91.4851C520.584 88.9468 531.775 87.6029 542.966 85.6619C574.448 80.1373 606.229 81.3318 637.861 79.988C682.624 78.047 727.535 75.5087 772.297 73.269C773.789 73.1197 775.281 72.6717 776.923 72.5224Z" fill="black" fill-opacity="0.1"/>
<path d="M159.055 442.369C148.76 468.498 170.842 553.606 192.179 570.479C192.627 569.583 193.223 568.687 193.671 567.791C198.893 557.339 205.757 548.231 214.709 540.616C216.351 539.272 218.141 537.929 220.081 537.033C229.182 533.151 238.732 539.272 238.433 549.127C238.284 552.86 237.09 556.891 235.449 560.325C230.078 571.076 224.408 581.826 218.44 592.278C203.519 618.557 190.687 645.732 179.347 673.653C178.75 675.296 178.154 676.789 177.258 679.327C179.646 678.431 181.138 677.983 182.63 677.386C223.811 661.41 264.992 645.284 306.323 629.606C331.837 619.901 358.247 613.033 385.253 608.852C385.999 608.703 386.745 608.404 387.939 608.255C387.342 607.209 387.044 606.015 386.447 605.418C380.18 598.699 374.361 591.532 367.647 585.261C362.275 580.184 355.561 576.451 349.742 571.822C346.609 569.284 343.624 566.447 341.386 563.162C337.507 557.638 338.104 550.62 341.834 545.693C345.713 540.616 352.129 538.675 358.694 540.616C360.933 541.363 363.171 542.408 365.409 543.602C378.688 550.919 390.177 560.624 400.323 571.822C411.066 583.469 421.809 595.115 432.403 606.911C435.238 610.046 437.476 613.481 440.012 616.915C440.758 617.96 441.057 619.154 441.654 620.648C433.298 621.842 425.539 622.439 417.93 624.231C401.815 627.964 385.701 631.547 369.885 636.624C328.853 649.913 288.567 665.292 249.027 682.612C230.824 690.526 212.173 697.245 193.97 704.71C184.42 708.592 175.169 713.221 165.769 717.402C164.277 718.148 162.785 718.895 161.293 719.343C154.579 721.732 148.163 721.433 142.791 716.207C137.42 710.981 136.972 704.561 139.509 697.693C143.537 686.793 147.268 675.594 151.893 664.993C162.039 641.85 172.782 619.154 183.077 596.16C183.674 594.817 183.823 592.428 183.077 591.681C165.919 575.406 155.922 554.95 147.864 533.3C139.807 511.799 134.734 489.701 133.242 466.856C132.347 453.119 133.839 439.681 139.36 426.99C141.747 421.465 145.328 416.239 149.357 411.909C154.579 406.235 162.636 405.638 168.604 410.565C211.874 446.251 263.202 455.06 316.916 454.314C381.374 453.418 444.041 441.772 505.514 422.66C514.318 419.972 523.27 417.583 532.223 415.493C535.505 414.746 539.235 414.597 542.667 415.194C549.232 416.389 551.321 422.062 546.994 426.99C544.159 430.275 540.28 432.962 536.4 435.053C520.137 443.862 502.68 449.834 484.625 454.314C433.746 467.005 382.568 477.159 330.047 479.846C289.015 481.937 248.43 479.548 209.338 465.512C191.881 459.689 175.02 452.373 159.055 442.369Z" fill="black" fill-opacity="0.1"/>
<path d="M347.355 154.345C346.459 156.436 345.713 157.929 344.967 159.422C339.596 171.516 332.732 182.565 322.139 190.628C316.618 194.809 310.351 198.542 303.786 200.632C291.551 204.664 280.51 201.08 273.049 190.778C268.573 184.506 265.44 177.041 262.903 169.725C260.218 161.363 258.875 152.703 256.786 143.446C255.294 144.341 254.1 145.237 252.757 146.133C226.049 165.693 197.103 181.371 166.366 193.465C160.398 195.854 154.28 197.497 148.163 199.288C146.671 199.736 144.88 199.886 143.388 199.736C139.658 199.587 136.823 197.945 135.629 194.212C134.436 190.33 135.779 187.194 138.912 184.954C140.255 184.059 141.747 183.312 143.239 182.565C180.541 165.693 214.56 144.341 243.059 114.479C246.341 111.045 250.071 108.059 254.249 105.819C265.141 99.9958 277.227 104.027 282.002 115.375C284.389 121.347 285.284 127.917 286.478 134.338C288.119 144.64 289.015 155.092 290.954 165.245C292.894 174.503 294.983 174.801 301.846 168.231C308.71 161.512 313.335 153.45 316.32 144.491C318.408 137.921 319.751 131.053 322.139 124.632C323.929 119.705 326.167 114.33 329.599 110.448C338.253 100.444 352.726 102.534 358.694 114.18C360.634 117.913 361.38 122.094 363.171 125.976C365.856 131.65 368.244 137.772 371.974 142.699C376.748 149.119 382.866 149.418 388.237 143.446C392.266 139.116 395.698 133.74 397.787 128.066C403.606 113.434 402.561 98.3533 398.384 83.2728C397.787 81.3318 397.19 79.3907 396.444 77.4496C385.104 41.6147 359.142 23.8466 323.183 18.77C320.05 18.322 316.767 18.0234 314.231 17.7248C314.231 22.6521 314.827 27.1314 314.081 31.4615C312.589 40.5695 305.427 43.8544 297.519 39.0764C294.088 36.986 291.103 34.1491 288.269 31.3122C259.919 4.13737 226.049 -4.82135 187.852 2.047C173.976 4.58531 162.039 11.603 151.147 20.4124C144.433 25.9369 141.15 33.4026 138.614 41.4654C137.122 46.0941 135.182 46.99 130.855 44.7503C124.14 41.3161 121.306 35.1943 121.156 28.0273C121.007 13.3947 126.677 1.15113 136.823 -9.15141C150.401 -23.0374 167.411 -30.0551 186.211 -33.0414C224.855 -39.3125 260.516 -31.5482 292.894 -9.15141C294.088 -8.25553 296.326 -7.95691 297.669 -8.40485C310.202 -12.8842 323.034 -14.0787 336.164 -12.1377C360.485 -8.70347 383.761 -1.38718 400.323 17.2768C428.822 49.0803 440.012 86.5577 429.419 128.813C426.136 141.803 419.571 153.151 409.126 161.96C389.431 178.235 366.752 176.444 350.04 157.182C349.444 156.436 348.548 155.54 347.355 154.345Z" fill="black" fill-opacity="0.1"/>
<path d="M1338.09 457.748C1337.35 456.852 1336.6 455.956 1335.85 455.06C1327.35 445.355 1326.3 433.41 1332.87 422.361C1337.05 415.493 1343.02 410.416 1349.88 406.385C1361.96 399.516 1375.09 395.186 1388.52 391.603C1389.87 391.304 1391.06 390.856 1392.4 390.557C1392.55 390.557 1392.7 390.259 1393.15 389.811C1392.4 388.766 1391.51 387.87 1390.61 386.825C1376.59 369.654 1374.05 351.139 1383.75 331.131C1387.63 323.218 1393 316.499 1399.56 310.675C1417.17 294.55 1438.21 285.74 1461.63 281.56C1485.96 277.08 1510.28 272.004 1534.6 267.076C1538.33 266.33 1542.06 265.732 1545.79 265.135C1546.68 264.986 1548.03 265.285 1548.62 265.882C1556.38 273.646 1565.78 279.021 1575.78 283.501C1575.93 283.65 1576.08 283.949 1576.52 284.396C1562.65 294.55 1545.94 293.206 1530.27 296.491C1530.87 302.165 1531.76 307.54 1532.21 313.064C1533.11 328.892 1533.11 344.868 1530.12 360.546C1529.52 363.681 1528.18 366.817 1526.39 369.355C1523.11 373.536 1517.89 372.939 1515.35 368.31C1514.01 365.921 1512.96 363.383 1512.51 360.695C1509.08 340.239 1505.65 319.783 1502.37 299.328C1502.22 298.88 1502.07 298.282 1501.92 297.536C1500.88 297.387 1499.68 297.387 1498.64 297.237C1495.36 296.789 1494.46 298.133 1494.76 301.418C1497 325.159 1499.24 348.899 1501.32 372.789C1501.92 378.911 1501.62 385.182 1501.77 391.453C1501.77 392.2 1501.62 393.096 1501.47 393.842C1500.58 399.964 1498.04 403.249 1494.01 403.697C1490.13 404.145 1486.4 401.905 1484.46 396.381C1480.88 386.078 1477.3 375.626 1474.91 364.876C1470.89 346.062 1467.75 327.1 1464.32 308.137C1464.02 306.793 1463.87 305.449 1463.72 303.658C1461.93 304.106 1460.59 304.255 1459.25 304.703C1442.83 310.078 1428.36 318.738 1416.57 331.28C1412.55 335.461 1409.26 340.687 1406.58 345.913C1402.4 353.827 1403.29 362.039 1408.96 368.758C1412.55 372.939 1417.32 376.373 1421.95 379.508C1425.23 381.748 1429.26 382.943 1432.99 384.734C1437.61 387.123 1440.45 391.005 1440.15 396.53C1439.85 401.905 1436.57 405.19 1431.94 407.131C1429.41 408.176 1426.87 408.773 1424.18 409.669C1412.55 413.402 1400.76 416.538 1389.42 420.868C1381.06 424.153 1373.15 428.931 1365.25 433.261C1362.86 434.455 1361.07 436.546 1358.23 438.785C1361.07 440.726 1363.31 442.518 1365.84 443.713C1371.07 445.952 1376.29 448.192 1381.66 449.984C1389.57 452.522 1393.75 457.001 1393.6 463.422C1393.45 469.991 1388.97 474.919 1380.76 476.412C1365.1 479.398 1350.62 485.072 1337.49 494.329C1336.45 495.076 1335.41 495.822 1334.66 497.614C1337.79 497.166 1340.93 497.166 1343.91 496.42C1360.62 492.388 1377.33 488.208 1394.04 484.325C1403.59 482.086 1412.99 479.995 1422.54 477.905C1424.78 477.457 1427.17 477.457 1429.41 477.905C1437.61 479.249 1441.79 487.162 1437.91 494.479C1436.12 497.764 1433.29 501.048 1430.15 502.989C1424.63 506.573 1418.66 509.858 1412.4 511.948C1387.63 520.31 1362.41 526.431 1336.45 529.268C1327.5 530.164 1318.55 530.015 1309.89 527.178C1288.55 520.31 1283.03 498.211 1298.85 482.235C1308.55 472.38 1320.93 466.707 1333.17 460.883C1334.66 460.137 1336.15 459.54 1337.64 458.793C1337.64 458.494 1337.79 458.196 1338.09 457.748Z" fill="black" fill-opacity="0.1"/>
<path d="M1458.5 -117.851C1454.62 -113.371 1451.49 -109.639 1448.36 -105.906C1442.98 -99.4854 1438.06 -92.617 1435.52 -84.4048C1433.58 -78.5816 1434.33 -77.2378 1440 -75.4461C1450.3 -72.1612 1460.59 -73.2064 1471.04 -74.4009C1490.58 -76.4913 1509.23 -81.8665 1527.73 -88.4363C1529.08 -88.8842 1530.57 -89.4814 1531.91 -89.7801C1536.39 -90.8252 1540.27 -89.9294 1543.4 -86.3459C1546.53 -82.9117 1546.98 -78.731 1545.19 -74.5502C1543.85 -71.564 1541.61 -69.175 1540.12 -66.3381C1537.73 -61.8587 1535.19 -57.3793 1533.4 -52.6013C1532.06 -48.8685 1533.55 -46.7782 1537.58 -46.4795C1541.61 -46.3302 1545.79 -46.6289 1549.67 -47.674C1559.07 -50.3617 1567.27 -55.4383 1574.29 -62.1573C1574.73 -62.6052 1575.18 -63.2025 1575.78 -63.6504C1581 -68.5777 1587.57 -69.3243 1592.34 -65.5915C1597.12 -61.7094 1597.71 -55.5876 1594.58 -49.0178C1591 -41.4029 1587.57 -33.4894 1584.73 -25.5758C1583.54 -22.291 1583.84 -18.2595 1584.28 -14.6761C1585.03 -9.1515 1588.46 -7.21044 1593.68 -9.30081C1596.82 -10.4953 1599.95 -12.1377 1602.64 -14.0788C1610.25 -19.454 1617.71 -25.1279 1625.17 -30.6525C1626.66 -31.8469 1628.15 -33.0414 1629.79 -34.0866C1637.55 -39.3126 1645.91 -36.7742 1649.34 -27.9648C1650.53 -25.1279 1651.28 -21.9923 1652.17 -19.0061C1655.6 -6.91181 1664.26 -0.790024 1676.2 -0.043457C1682.01 0.40448 1688.13 -0.192772 1693.95 -1.53658C1711.56 -5.86663 1726.33 -15.2733 1737.22 -30.0552C1748.11 -44.6878 1748.56 -60.2163 1739.31 -74.8488C1734.83 -81.8665 1728.42 -85.5993 1720.36 -86.7938C1716.03 -87.3911 1712 -86.6445 1709.17 -83.2103C1704.99 -78.1337 1701.11 -72.7585 1697.83 -67.0846C1694.7 -61.8587 1695.89 -56.6328 1699.47 -51.8548C1701.41 -49.4658 1703.35 -46.9275 1704.69 -44.0905C1707.23 -39.1632 1705.59 -34.8332 1700.67 -32.2949C1696.19 -29.9059 1691.56 -30.3538 1686.94 -31.9963C1672.02 -37.5208 1662.62 -53.4972 1665.75 -70.0709C1668.88 -86.7938 1677.39 -100.978 1690.37 -112.028C1695.14 -116.059 1700.52 -118.448 1707.08 -118C1713.8 -117.552 1720.66 -118.299 1727.37 -117.701C1732 -117.403 1736.92 -116.507 1740.95 -114.715C1768.11 -102.173 1781.98 -69.7722 1773.03 -39.4619C1764.38 -9.74875 1743.49 8.16871 1715.59 18.7699C1697.53 25.6382 1679.18 26.6834 1660.53 20.5616C1646.06 15.933 1636.36 6.52627 1631.43 -7.95701C1630.99 -9.1515 1630.54 -10.1967 1629.94 -11.6898C1625.46 -8.85288 1621.29 -6.16526 1617.11 -3.62695C1611.44 -0.342087 1606.07 3.24141 1600.1 5.92902C1584.88 12.6481 1570.56 6.22765 1565.33 -9.45013C1563.54 -14.8254 1563.54 -20.9472 1562.8 -26.621C1562.65 -27.9648 1562.8 -29.3086 1562.8 -30.3538C1556.08 -28.7114 1549.52 -26.9196 1542.95 -25.8745C1539.07 -25.2772 1534.75 -25.5758 1530.87 -26.3224C1517.59 -28.8607 1509.23 -40.2084 1510.28 -53.9451C1510.43 -56.7821 1511.02 -59.4697 1511.47 -62.9039C1509.38 -62.4559 1507.74 -61.8587 1506.1 -61.5601C1489.69 -58.5738 1473.42 -55.1396 1457.01 -52.6013C1447.01 -50.9589 1437.02 -52.0041 1427.32 -55.289C1413.29 -60.0669 1406.28 -71.8626 1408.67 -86.4952C1410.46 -97.395 1415.08 -107.1 1421.8 -115.91C1422.54 -116.955 1424.18 -118 1425.38 -118C1435.97 -117.851 1446.71 -117.851 1458.5 -117.851Z" fill="black" fill-opacity="0.1"/>
<path d="M304.681 294.55C302.592 300.671 300.205 306.196 298.713 312.019C295.132 326.502 292.894 341.284 295.431 356.365C297.221 367.265 301.846 370.699 312.44 367.265C320.05 364.876 327.659 361.292 334.523 357.261C344.52 351.437 353.92 344.271 363.917 338.298C373.018 332.773 382.568 327.846 392.117 323.217C395.996 321.426 400.323 320.53 404.65 320.082C415.692 318.887 424.047 323.665 428.523 333.819C430.612 338.447 431.657 343.673 433.597 348.451C435.238 352.632 436.879 356.813 439.266 360.546C442.101 365.025 444.339 365.323 448.219 361.889C453.143 357.41 457.768 352.632 461.946 347.555C466.87 341.434 470.898 334.565 475.971 328.593C480.597 323.217 485.819 317.992 491.787 314.259C502.53 307.39 513.572 310.377 519.689 321.575C522.673 327.1 524.464 333.371 527.15 339.194C528.94 343.076 530.432 347.257 532.969 350.691C537.594 357.111 543.712 357.858 550.426 353.677C566.54 343.823 574.747 321.426 568.778 303.508C565.645 294.251 554.753 287.233 545.204 288.129C540.429 288.577 535.356 293.803 534.311 299.328C533.267 304.703 531.477 305.449 527.15 302.164C520.584 297.088 518.495 290.219 519.988 282.306C523.27 264.239 540.28 253.489 557.886 259.013C577.582 265.284 589.071 279.32 592.801 299.626C595.039 312.168 594.144 324.561 590.413 336.656C585.042 353.976 573.553 365.921 556.991 372.64C542.219 378.612 526.254 375.029 515.81 362.935C511.93 358.455 509.095 352.781 505.962 347.555C504.321 344.718 503.127 341.732 501.486 338.149C499.845 339.642 498.502 340.538 497.457 341.881C493.13 347.257 489.102 352.931 484.476 358.007C478.06 365.025 471.943 372.491 464.482 378.015C448.666 389.96 432.85 387.72 420.615 372.192C415.841 366.07 412.558 358.754 409.127 351.736C407.485 348.302 405.844 347.555 402.711 349.496C395.996 353.379 389.133 356.813 382.568 360.844C370.333 368.011 358.396 375.775 346.012 382.793C334.97 389.064 323.034 393.245 310.351 394.738C290.507 396.978 275.288 387.123 269.021 368.16C263.5 351.437 264.843 334.416 268.424 317.544C271.557 302.762 276.78 288.876 288.119 278.125C291.104 275.288 294.535 272.75 298.265 270.66C303.338 267.823 308.71 267.673 313.485 271.555C318.11 275.438 318.558 280.664 316.916 286.039C316.32 287.98 315.574 289.921 314.529 291.563C312.589 294.997 310.053 297.386 304.681 294.55Z" fill="black" fill-opacity="0.1"/>
<path d="M1151.13 -117.851C1146.06 -111.281 1141.59 -105.607 1137.41 -99.7838C1114.13 -67.831 1098.91 -32.2947 1093.24 6.97437C1091.75 17.5755 1091.9 28.326 1094.14 38.9272C1097.87 56.2474 1105.63 66.5499 1129.5 68.3417C1135.32 68.7896 1141.44 68.1924 1147.26 66.9979C1166.35 63.1158 1183.81 54.9036 1199.18 42.8093C1213.35 31.7602 1214.1 15.1866 1201.72 2.04708C1187.39 -13.3321 1163.07 -13.6307 1148.15 1.30052C1144.27 5.18264 1140.69 9.51268 1137.11 13.6934C1133.98 17.4262 1130.69 17.7249 1127.71 13.6934C1124.72 9.96062 1123.98 5.48125 1125.02 1.00189C1128.45 -13.9293 1136.81 -25.4264 1150.54 -32.444C1161.88 -38.1179 1173.96 -38.8645 1186.2 -36.4755C1219.32 -29.9057 1240.51 1.44983 1233.65 33.7013C1231.56 43.2572 1227.38 51.9173 1219.92 58.0392C1190.38 82.377 1156.95 96.8603 1117.86 92.8289C1092.5 90.2906 1075.34 76.5538 1067.73 51.768C1060.86 29.5205 1061.46 7.12369 1065.94 -15.4224C1072.5 -49.0177 1086.08 -79.4774 1107.86 -106.055C1117.86 -118.149 1118.01 -118 1133.38 -118C1138.75 -117.851 1144.27 -117.851 1151.13 -117.851Z" fill="black" fill-opacity="0.1"/>
<path d="M1266.02 318.29C1262.14 317.992 1258.27 317.992 1254.68 317.096C1243.94 314.408 1236.33 306.943 1239.32 294.699C1240.51 289.622 1241.85 284.397 1243.79 279.469C1259.76 240.797 1284.53 209.89 1322.57 190.927C1344.66 179.878 1367.93 176.742 1392.25 180.774C1396.88 181.52 1401.5 183.014 1405.98 184.507C1410.76 186.149 1413.44 190.778 1412.7 195.705C1410.61 209.292 1407.32 222.581 1400.76 234.825C1375.84 280.664 1337.05 307.241 1285.87 315.901C1279.3 317.096 1272.59 317.544 1266.02 318.29ZM1386.29 202.573C1367.04 198.841 1338.09 207.65 1316.9 223.328C1294.37 239.901 1278.56 261.701 1266.92 287.831C1270.5 286.785 1273.04 285.89 1275.57 285.143C1314.37 273.795 1347.49 253.19 1373.6 221.984C1378.23 216.31 1381.81 209.442 1386.29 202.573Z" fill="black" fill-opacity="0.1"/>
<path d="M190.09 68.1922C186.211 65.0567 182.779 62.369 179.496 59.3828C174.573 55.0527 173.23 50.5734 175.617 46.9899C177.855 43.5557 182.63 42.0626 188.15 45.0488C204.116 53.7089 219.782 62.817 235.151 72.2236C239.627 74.9113 240.373 80.1372 238.284 84.0193C236.046 88.0508 231.271 89.6932 226.198 87.4535C221.275 85.3631 216.351 82.8248 211.576 80.4358C211.278 80.5851 210.83 80.7345 210.532 81.0331C204.563 87.1549 199.192 94.3219 192.328 99.3985C174.871 112.687 155.474 122.99 133.69 127.171C112.353 131.202 94.0006 124.483 79.5275 108.208C65.8005 92.8287 59.5338 74.314 57.1464 54.3062C53.5655 22.8013 59.5338 -7.50905 68.337 -37.5208C76.245 -64.5463 88.0324 -89.6308 105.639 -112.028C108.772 -116.059 112.055 -118.448 117.874 -118C124.588 -117.403 131.452 -117.851 138.166 -117.851C138.166 -117.403 138.315 -117.104 138.166 -116.955C120.709 -99.336 110.563 -77.3871 102.655 -54.5424C94.0007 -29.4579 88.48 -3.62694 85.9435 22.8013C84.7498 35.6422 85.1974 48.483 87.7339 61.3239C89.6736 71.0291 94.0006 79.5399 100.118 87.0056C108.474 97.1588 119.515 101.489 132.347 98.8012C148.76 95.5163 163.83 88.648 177.109 78.4948C181.585 75.3592 185.614 71.7757 190.09 68.1922Z" fill="black" fill-opacity="0.1"/>
<path d="M1547.28 534.643C1522.36 534.046 1502.52 524.789 1488.49 503.138C1482.08 493.284 1478.35 483.579 1479.84 471.932C1481.33 459.241 1486.25 447.893 1495.51 439.084C1518.93 416.687 1546.68 409.221 1577.57 419.524C1599.65 426.84 1614.12 442.518 1616.96 466.258C1619.79 489.85 1609.95 508.364 1590.85 521.802C1577.72 530.911 1563.1 534.793 1547.28 534.643ZM1540.27 501.645C1556.98 501.795 1573.09 493.433 1581 481.638C1587.86 471.484 1586.07 459.987 1575.93 453.119C1571.45 450.133 1566.08 447.893 1560.71 446.698C1536.69 441.025 1507.74 459.241 1514.01 486.117C1514.6 488.506 1515.65 491.044 1517.44 492.687C1524.3 499.107 1532.96 501.347 1540.27 501.645Z" fill="black" fill-opacity="0.1"/>
<path d="M88.3307 223.925C103.251 223.925 118.172 223.925 132.794 227.658C163.084 235.273 185.166 253.937 201.579 279.917C205.309 285.889 208.741 292.16 211.278 298.73C217.246 313.96 222.617 329.488 228.138 344.868C229.033 347.406 230.078 350.094 229.928 352.781C229.779 355.17 228.884 358.455 227.243 359.799C225.751 360.993 222.468 360.247 220.23 359.948C215.754 359.202 211.278 358.306 206.801 357.111C197.401 354.722 188.15 351.587 178.601 349.496C147.566 342.777 120.112 328.593 95.3435 308.883C84.8989 300.522 77.1402 290.07 70.2766 278.722C64.9052 269.913 59.9813 260.954 54.6099 252.145C52.5209 248.561 50.1336 245.127 47.5971 241.693C44.613 237.662 44.7622 234.227 48.0447 230.345C51.3273 226.612 55.6543 225.269 60.4289 225.269C69.829 225.119 79.0799 225.269 88.4799 225.269C88.3307 224.671 88.3307 224.373 88.3307 223.925ZM200.385 333.968C195.909 323.665 192.328 314.109 187.554 305.151C173.379 278.274 151.893 260.357 121.753 254.235C108.623 251.548 95.1943 250.801 81.9148 249.308C79.0799 249.009 76.2449 248.86 73.1116 248.711C100.118 300.223 145.925 322.62 200.385 333.968Z" fill="black" fill-opacity="0.1"/>
<path d="M1861.51 -117.552C1870.16 -117.552 1878.52 -117.552 1887.92 -117.552C1886.28 -108.743 1885.53 -99.9334 1883 -91.7212C1872.85 -59.0219 1857.33 -29.3088 1833.16 -4.37363C1810.33 19.2177 1783.62 36.8365 1754.53 51.1705C1733.34 61.6223 1711.71 71.3276 1690.07 81.1822C1686.79 82.6754 1683.06 83.7205 1679.48 83.8699C1670.67 84.3178 1664.41 76.8522 1666.65 68.3414C1667.69 64.31 1669.93 59.9799 1672.91 57.2923C1678.13 52.5143 1683.95 47.8856 1690.22 44.7501C1702.75 38.479 1715.88 33.1037 1728.87 27.5792C1762.29 13.5438 1792.73 -5.12019 1818.09 -31.3991C1821.08 -34.3854 1824.06 -37.3716 1826.45 -40.8058C1842.11 -63.6506 1855.84 -87.3912 1860.91 -115.163C1861.06 -115.761 1861.36 -116.507 1861.51 -117.552Z" fill="black" fill-opacity="0.1"/>
<path d="M1571.45 196.75C1572.05 205.112 1572.05 213.623 1573.39 221.835C1575.93 236.915 1588.91 244.829 1603.98 241.245C1620.24 237.363 1627.26 226.314 1625.91 209.292C1625.32 201.23 1620.39 195.705 1612.48 193.764C1610.99 193.465 1609.05 194.063 1607.71 194.959C1603.68 197.348 1601.74 197.198 1598.61 193.764C1593.98 188.687 1593.38 180.475 1597.41 174.055C1602.34 166.141 1609.95 162.558 1619.05 162.408C1635.76 161.811 1651.87 172.562 1658.89 188.389C1675.3 225.418 1651.43 268.42 1611.44 273.049C1604.58 273.795 1597.26 271.556 1590.4 269.764C1575.93 265.732 1563.1 258.864 1552.8 247.516C1545.49 239.454 1542.21 230.047 1541.61 219.446C1540.71 205.709 1542.36 192.42 1546.53 179.281C1547.13 177.34 1548.03 175.399 1548.92 173.756C1551.76 168.53 1556.83 165.843 1562.05 166.739C1567.42 167.634 1571.6 171.964 1572.2 177.937C1572.65 182.566 1572.35 187.194 1572.35 191.674C1572.35 193.465 1572.2 195.257 1572.05 196.9C1571.9 196.75 1571.75 196.75 1571.45 196.75Z" fill="black" fill-opacity="0.1"/>
<path d="M1486.4 42.2117C1487 63.862 1481.18 71.9249 1465.22 75.359C1441.79 80.2863 1418.22 85.0643 1394.64 89.3944C1379.42 92.2313 1370.17 81.7795 1373.9 66.8483C1379.72 44.3021 1382.26 21.308 1383.6 -1.83534C1383.75 -3.47778 1383.6 -5.12022 1383.9 -6.76265C1384.79 -13.0338 1388.52 -16.1693 1394.79 -16.7666C1415.53 -19.0062 1436.12 -21.2459 1456.86 -23.7842C1466.41 -24.9787 1472.97 -22.2911 1476.56 -13.3324C1479.39 -6.1654 1481.33 1.44952 1482.52 8.91513C1484.46 21.756 1485.51 34.7461 1486.4 42.2117ZM1403 57.8895C1404.34 57.7402 1405.53 57.7402 1406.73 57.5909C1421.65 55.3512 1436.42 53.1115 1451.34 50.7225C1456.71 49.8267 1457.01 49.8267 1455.82 44.6007C1452.24 27.8778 1448.36 11.3041 1444.48 -6.01609C1431.5 -4.52297 1418.37 -2.88053 1406.13 -1.53672C1405.09 18.6204 1404.04 38.031 1403 57.8895Z" fill="black" fill-opacity="0.1"/>
<path d="M79.6767 461.033C75.6481 463.422 72.2163 465.96 68.4861 467.603C62.9655 470.141 57.2956 472.679 51.4765 474.023C41.4796 476.412 33.2732 472.38 29.3938 462.675C26.1113 454.762 24.0223 446.251 22.2319 437.74C19.6953 425.198 17.7556 412.656 15.8159 400.113C15.3683 397.874 15.2191 395.485 15.2191 393.245C15.0699 380.554 22.9779 373.237 35.6605 375.626C48.6416 378.015 61.6226 381.151 74.4544 384.436C81.1688 386.227 86.391 390.408 89.6736 396.978C96.6863 411.013 100.118 425.944 102.953 441.174C107.877 467.752 112.95 494.479 117.575 521.206C118.62 527.477 118.62 534.196 118.172 540.616C117.874 545.842 114.89 548.679 111.01 549.276C107.28 549.874 103.699 547.932 101.461 543.304C99.6705 539.571 98.0292 535.689 96.9847 531.508C91.4641 509.41 86.2418 487.312 80.8703 465.214C80.2735 463.87 79.9751 462.526 79.6767 461.033ZM41.3304 402.054C41.778 405.339 42.0764 408.624 42.5241 411.76C44.1653 424.153 45.6574 436.396 47.4479 448.789C48.1939 453.567 48.7908 453.866 52.8194 451.925C59.8321 448.491 66.8449 444.758 73.5592 440.876C74.6036 440.278 75.4989 437.889 75.3497 436.695C73.1116 425.944 70.7242 415.194 68.3369 404.593C68.0385 403.548 66.6956 402.204 65.8004 402.204C57.7432 401.905 49.8352 402.054 41.3304 402.054Z" fill="black" fill-opacity="0.1"/>
<path d="M656.363 445.952C655.169 445.056 654.423 444.608 653.827 444.16C639.204 434.157 635.026 416.986 643.83 401.607C650.693 389.512 660.839 380.553 672.925 373.834C682.922 368.31 693.367 363.98 703.662 359.053C716.792 352.781 729.922 346.809 742.903 340.389C745.738 339.045 748.275 336.805 750.513 334.416C752.9 331.878 752.005 329.489 748.573 328.444C743.053 326.652 739.919 322.471 740.367 317.394C740.814 312.169 745.141 307.839 750.811 307.092C756.481 306.345 761.107 308.585 765.135 312.467C775.58 322.77 776.773 339.791 767.373 350.99C763.792 355.32 759.316 359.202 754.542 362.039C744.843 367.862 734.846 372.789 724.849 377.866C712.614 384.137 700.081 390.109 687.846 396.679C679.49 401.159 671.881 406.982 666.062 414.746C661.436 420.868 661.735 425.049 668.3 428.781C675.909 433.111 683.966 436.695 692.024 440.278C697.992 442.817 701.125 446.4 700.976 451.477C700.678 456.852 696.798 460.734 690.382 462.078C687.547 462.675 684.712 462.824 681.878 463.272C669.792 465.064 660.392 471.335 653.677 481.489C647.858 490.149 647.261 499.406 652.335 508.813C653.976 511.65 652.185 512.396 650.096 513.143C645.173 514.636 639.652 512.545 635.922 507.469C629.357 498.361 627.715 488.208 630.55 477.308C633.833 464.915 641.293 455.658 652.036 448.789C653.528 447.744 654.722 446.997 656.363 445.952Z" fill="black" fill-opacity="0.1"/>
<path d="M1199.78 240.349C1201.57 217.056 1207.39 194.809 1212.76 172.412C1219.62 143.595 1229.32 115.674 1241.26 88.648C1243.34 83.87 1245.88 79.0921 1248.57 74.6127C1251.55 69.8347 1256.03 67.595 1261.7 68.6402C1266.77 69.6854 1271.1 73.8661 1271.4 79.8386C1271.69 86.707 1271.69 93.7247 1270.2 100.444C1267.22 113.434 1263.34 126.125 1259.61 138.817C1251.7 166.589 1243.79 194.361 1235.74 221.984C1233.2 230.943 1230.36 239.901 1227.23 248.711C1225.89 252.294 1223.95 255.878 1221.26 258.715C1214.85 265.583 1204.85 263.642 1201.72 254.683C1200.37 250.204 1200.37 245.127 1199.78 240.349Z" fill="black" fill-opacity="0.1"/>
<path d="M886.441 -4.67202C883.457 -14.3773 880.771 -23.336 878.085 -32.2948C877.19 -35.5796 876.295 -38.8645 875.996 -42.1494C875.399 -48.5698 878.98 -53.6464 884.65 -55.2888C890.32 -56.9313 896.438 -54.393 899.273 -48.5698C901.212 -44.6877 902.406 -40.5069 903.898 -36.4755C910.314 -18.7074 916.282 -0.93922 923.295 16.5303C929.114 31.1629 936.724 44.8996 942.393 59.5322C949.854 78.4948 956.419 97.7561 962.984 116.868C964.178 120.452 964.178 124.632 963.879 128.365C963.73 131.799 960.895 133.292 958.06 131.799C954.181 129.709 949.854 127.171 947.317 123.736C942.841 117.465 939.111 110.746 935.679 103.729C923.593 78.3455 911.657 52.6638 899.869 27.1315C898.377 23.9959 896.587 22.9507 893.304 23.3987C880.771 24.8918 868.237 26.0863 855.704 27.4301C853.018 27.7287 850.332 28.1766 847.647 27.878C842.275 27.4301 837.948 25.1904 836.009 19.8152C834.069 14.2906 835.561 9.36332 839.888 5.77983C842.723 3.39083 846.155 1.44978 849.587 0.105965C859.136 -3.47753 869.282 -4.52271 879.577 -4.82133C881.815 -4.82133 883.755 -4.67202 886.441 -4.67202Z" fill="black" fill-opacity="0.1"/>
<path d="M1216.19 340.388C1215.89 352.93 1212.91 365.174 1204.85 375.775C1187.24 398.769 1157.25 397.276 1142.33 372.64C1133.38 358.007 1131.89 342.031 1136.21 325.606C1138.75 315.901 1142.63 306.644 1149.94 299.178C1165.46 283.351 1188.44 283.948 1202.91 300.821C1212.61 312.019 1215.89 325.457 1216.19 340.388ZM1163.37 341.135C1163.37 347.406 1164.26 353.528 1167.99 358.903C1170.68 362.636 1173.66 362.785 1176.8 359.799C1185 351.736 1187.39 332.624 1181.13 322.919C1177.84 317.693 1174.26 317.394 1169.93 321.874C1164.86 327.099 1163.37 333.819 1163.37 341.135Z" fill="black" fill-opacity="0.1"/>
<path d="M1539.07 131.65C1550.71 130.157 1561.01 128.664 1571.3 127.619C1583.24 126.424 1595.32 125.23 1607.26 124.632C1616.21 124.185 1621.73 128.365 1622.03 135.084C1622.33 141.505 1617.41 146.133 1608.75 147.029C1588.61 148.97 1568.47 150.463 1548.47 152.554C1539.37 153.45 1530.27 155.54 1521.17 156.884C1507.44 158.825 1498.34 149.418 1501.17 135.831C1502.07 131.202 1504.01 126.723 1506.25 122.691C1509.23 117.316 1512.81 112.389 1516.39 107.462C1525.79 93.7249 1535.34 79.9882 1544.89 66.4007C1548.62 61.0255 1552.2 55.6503 1556.53 50.723C1562.05 44.3025 1570.41 43.4067 1576.67 47.5874C1582.94 51.9175 1585.18 60.1296 1581.3 67.4459C1576.67 76.106 1571.3 84.6168 1565.93 92.829C1558.32 104.177 1550.26 115.375 1542.51 126.574C1541.46 127.768 1540.57 129.112 1539.07 131.65Z" fill="black" fill-opacity="0.1"/>
<path d="M491.34 26.3849C493.578 14.8879 495.816 3.24153 497.905 -8.25551C499.397 -16.3184 500.441 -24.5305 502.232 -32.5934C502.978 -36.0276 504.619 -39.6111 506.857 -42.448C512.975 -50.2122 524.016 -48.2712 527.299 -39.0138C528.642 -34.8331 529.388 -30.2044 529.388 -25.8743C529.686 -6.46376 527.896 12.6482 521.48 31.0136C519.092 37.882 515.661 44.8996 511.334 50.7228C502.68 62.5185 489.997 63.4143 479.552 53.1118C473.286 46.99 467.914 39.9723 461.797 33.5519C459.708 31.4615 456.724 30.267 454.187 28.6246C450.755 26.2356 447.025 24.1452 444.339 21.159C440.758 17.1276 440.46 12.051 442.997 7.12365C445.682 2.04704 450.159 -0.789902 455.679 0.105972C460.155 0.852531 465.079 2.49497 468.511 5.3319C474.927 10.5578 480.597 16.9783 486.565 22.8014C487.759 23.8466 488.654 25.1904 489.698 26.3849C490.146 26.3849 490.743 26.3849 491.34 26.3849Z" fill="black" fill-opacity="0.1"/>
<path d="M1013.57 132.098C1023.26 133.741 1032.22 134.935 1041.02 137.025C1052.96 139.862 1064.89 142.998 1076.68 146.432C1081.01 147.776 1085.18 150.016 1089.21 152.106C1092.35 153.748 1094.73 156.287 1093.54 160.318C1092.35 164.2 1088.92 164.797 1085.63 164.499C1079.07 163.902 1072.5 163.155 1065.94 162.259C1049.23 159.87 1032.37 157.481 1015.65 154.794C1011.48 154.196 1007.45 153.002 1003.57 151.359C995.81 147.925 991.334 141.654 991.781 133.143C992.229 126.574 993.273 119.854 995.511 113.733C999.242 103.43 1004.02 93.5756 1008.49 83.5716C1011.33 77.4498 1014.61 71.4774 1017.59 65.5049C1018.49 63.8624 1019.24 62.0707 1020.43 60.5776C1023.41 56.5461 1028.34 55.053 1032.66 56.6955C1036.84 58.3379 1039.68 62.5186 1039.23 67.2966C1038.93 70.2829 1038.18 73.4184 1036.99 76.2554C1034.01 83.4223 1030.58 90.2907 1027.44 97.3084C1023.56 106.118 1019.68 114.927 1015.95 123.737C1014.91 126.275 1014.46 128.813 1013.57 132.098Z" fill="black" fill-opacity="0.1"/>
<path d="M935.679 -2.2831C949.854 -2.2831 963.283 -2.13379 976.562 -2.2831C982.53 -2.2831 988.499 -2.88035 994.467 -3.17897C996.854 -3.32829 998.048 -4.22416 998.048 -6.91177C998.197 -24.232 998.645 -41.5522 998.645 -59.0217C998.645 -63.3518 997.749 -67.6818 997.6 -72.0119C997.451 -75.4461 997.153 -79.1789 997.899 -82.4637C999.092 -87.9883 1004.02 -91.5718 1009.39 -91.5718C1014.61 -91.7211 1019.38 -88.4362 1021.18 -83.2103C1022.07 -80.5227 1022.52 -77.6857 1022.52 -74.8488C1021.62 -49.9137 1020.58 -24.9786 1019.38 -0.0434189C1018.94 8.46738 1014.46 14.5892 1006.25 16.5302C999.242 18.322 991.93 19.2178 984.619 19.5165C971.787 20.263 958.956 20.263 945.975 20.4123C944.781 20.4123 942.99 19.5165 942.543 18.6206C940.155 12.0509 938.067 5.18251 935.679 -2.2831Z" fill="black" fill-opacity="0.1"/>
<path d="M1682.16 518.518C1679.78 505.229 1677.24 492.537 1675.45 479.697C1673.21 463.571 1671.42 447.445 1669.78 431.32C1669.33 427.736 1669.63 424.003 1670.23 420.42C1671.72 412.656 1677.99 407.579 1685.3 407.43C1692.76 407.28 1699.32 412.208 1701.11 420.121C1702.6 427.139 1703.35 434.306 1704.25 441.473C1706.93 460.734 1709.62 479.846 1712.15 499.107C1712.3 500.6 1711.86 502.989 1710.81 503.437C1701.56 508.365 1692.16 513.292 1682.16 518.518Z" fill="black" fill-opacity="0.1"/>
<path d="M1740.5 488.506C1739.01 476.262 1737.22 465.064 1736.33 453.716C1734.98 436.993 1734.09 420.121 1733.34 403.398C1733.19 399.665 1734.09 395.484 1735.43 391.901C1737.52 386.526 1742 383.689 1747.81 383.539C1753.63 383.39 1758.41 385.928 1760.65 391.154C1762.59 395.484 1763.78 400.412 1764.38 405.19C1766.76 426.989 1769 448.938 1771.09 470.738C1771.24 471.932 1770.79 473.873 1770.05 474.172C1760.65 478.95 1750.95 483.579 1740.5 488.506Z" fill="black" fill-opacity="0.1"/>
<path d="M1285.12 126.275C1285.72 112.986 1286.17 99.6972 1286.91 86.5578C1287.06 84.6167 1287.51 82.5263 1288.11 80.5853C1289.9 75.21 1293.48 71.7759 1299.3 71.3279C1304.97 70.88 1309.29 73.7169 1311.83 78.6442C1313.32 81.4812 1314.37 84.766 1314.67 87.9016C1316.31 113.583 1315.71 139.116 1310.64 164.349C1309.89 167.784 1308.7 171.068 1307.21 174.353C1304.82 179.579 1300.79 182.267 1296.31 181.968C1291.69 181.67 1287.66 178.235 1286.47 172.412C1285.42 167.186 1284.82 161.662 1284.53 156.287C1284.23 151.359 1284.82 146.283 1284.82 141.206C1284.82 136.129 1284.82 131.202 1284.82 126.125C1284.97 126.275 1284.97 126.275 1285.12 126.275Z" fill="black" fill-opacity="0.1"/>
<path d="M890.619 444.459C890.469 434.604 894.946 427.885 902.555 426.691C910.314 425.496 916.879 430.125 919.416 439.681C924.041 456.553 928.368 473.425 932.695 490.447C934.336 497.017 934.635 503.586 932.695 510.156C932.098 512.097 931.501 514.038 930.457 515.83C925.981 523.445 918.073 523.893 913.149 516.577C910.762 512.993 908.971 508.962 907.031 505.079C898.825 487.759 890.917 458.643 890.619 444.459Z" fill="black" fill-opacity="0.1"/>
<path d="M1127.41 155.839C1127.71 141.057 1139.79 127.917 1154.57 126.275C1170.08 124.632 1183.51 137.921 1181.72 153.748C1180.53 164.648 1175.46 173.457 1166.35 179.878C1154.27 188.239 1139.79 185.402 1131.74 172.86C1128.6 167.784 1127.11 162.11 1127.41 155.839Z" fill="black" fill-opacity="0.1"/>
<path d="M664.569 279.021C664.719 268.121 668.598 258.864 677.7 252.294C686.354 246.023 695.903 244.381 705.601 249.308C715.3 254.235 719.329 262.746 719.329 273.347C719.329 290.07 705.154 304.255 688.89 304.105C674.716 303.807 664.271 293.056 664.569 279.021ZM699.335 272.601C699.335 268.718 697.246 266.927 693.516 267.076C688.443 267.375 682.474 273.198 681.878 278.125C681.281 283.202 684.712 286.785 689.189 285.591C694.262 284.396 699.335 277.827 699.335 272.601Z" fill="black" fill-opacity="0.1"/>
<path d="M76.5433 171.964C74.7528 168.53 72.6639 165.395 71.4703 161.961C69.5306 156.436 67.5909 150.762 66.6956 144.939C65.8004 139.116 69.5306 134.786 74.6036 133.89C79.3782 132.994 83.8545 135.98 85.645 141.355C88.9275 151.658 92.3593 161.961 95.3434 172.263C98.1784 181.968 94.4482 187.045 84.3021 188.09C78.483 188.687 72.5147 188.389 66.994 190.031C59.2353 192.271 51.7749 195.556 44.6129 199.139C38.6446 201.976 33.124 205.858 27.4541 209.143C21.3366 212.577 15.3683 208.994 15.2191 202.126C15.0699 195.406 18.6509 190.33 24.0223 186.896C28.9462 183.76 34.4668 180.923 40.1367 179.43C51.3273 176.593 62.8162 174.652 74.3052 172.412C74.902 172.412 75.4988 172.263 76.5433 171.964Z" fill="black" fill-opacity="0.1"/>
<path d="M922.698 127.469C922.4 129.559 922.101 131.65 922.101 133.591C921.952 137.622 919.565 137.921 916.581 136.876C909.717 134.487 904.495 129.858 901.361 123.587C896.288 113.434 891.514 103.131 886.888 92.6793C883.904 85.9603 881.666 79.0919 878.831 72.2236C875.549 64.31 877.637 56.6951 884.053 52.9623C890.619 49.2295 899.273 51.0212 903.45 58.6362C907.628 66.4004 911.06 74.7619 913.596 83.2727C917.028 95.2176 919.266 107.611 921.952 119.705C922.25 122.392 922.4 124.931 922.698 127.469Z" fill="black" fill-opacity="0.1"/>
<path d="M329.301 306.047C331.24 290.369 334.97 276.931 343.624 265.285C348.996 258.267 356.158 254.086 365.409 254.982C372.72 255.729 378.241 259.461 380.926 266.33C383.612 273.198 380.329 278.573 373.168 279.171C370.482 279.32 368.84 280.514 367.945 282.903C364.812 291.414 361.828 299.925 358.844 308.585C357.948 311.123 357.501 313.811 356.307 316.349C353.92 321.127 349.891 323.964 344.37 324.114C338.999 324.114 334.821 321.575 332.583 316.946C330.793 312.915 330.047 308.734 329.301 306.047Z" fill="black" fill-opacity="0.1"/>
<path d="M1331.68 -19.6035C1341.37 -18.857 1348.69 -12.5858 1350.48 -2.88056C1353.46 13.2452 1341.97 32.3571 1326.15 37.1351C1312.43 41.3158 1300.79 33.253 1299.89 18.919C1299.75 15.9328 1299.89 12.9465 1300.64 10.1096C1303.77 -1.08881 1309.15 -10.6448 1320.04 -16.02C1323.77 -17.6625 1327.95 -18.409 1331.68 -19.6035ZM1316.75 15.4848C1316.46 19.2176 1317.8 20.2628 1320.78 19.0683C1326.45 16.8287 1332.57 7.42198 1332.42 1.59881C1332.42 -1.53675 1330.78 -2.43262 1328.24 -1.08881C1321.98 2.644 1317.5 7.72061 1316.75 15.4848Z" fill="black" fill-opacity="0.1"/>
<path d="M858.837 129.261C863.612 129.261 867.342 130.007 869.282 133.74C871.371 137.622 869.879 141.206 867.342 144.192C865.403 146.432 863.164 148.671 860.628 150.015C843.469 159.87 826.31 169.426 809.002 178.982C807.063 180.027 804.675 180.624 802.437 180.773C797.513 181.221 793.335 179.28 790.948 174.801C788.412 170.322 788.859 165.693 791.993 161.811C793.932 159.272 796.469 157.033 799.304 155.39C816.612 144.939 834.964 136.577 854.063 130.007C855.853 129.709 857.942 129.559 858.837 129.261Z" fill="black" fill-opacity="0.1"/>
<path d="M1326.01 91.4847C1326.01 87.9012 1325.71 84.4671 1326.01 80.8836C1326.75 73.7166 1331.38 68.7893 1337.49 67.8934C1343.61 66.9975 1349.58 70.581 1351.82 77.4494C1355.7 89.0957 1357.64 101.19 1356.59 113.434C1355.85 122.243 1351.37 127.618 1344.95 128.663C1338.39 129.559 1331.97 125.528 1329.44 117.017C1327.05 108.805 1326.15 100.145 1324.51 91.634C1325.11 91.4847 1325.56 91.4847 1326.01 91.4847Z" fill="black" fill-opacity="0.1"/>
<path d="M247.535 215.563C246.192 223.477 244.252 231.988 239.776 239.602C235.897 246.321 228.586 247.367 222.319 242.887C216.5 238.707 210.532 234.675 204.713 230.494C202.922 229.3 201.132 227.956 199.789 226.314C195.909 221.834 196.655 215.712 201.728 212.577C205.16 210.487 209.04 209.143 212.77 207.65C217.694 205.559 222.767 204.066 227.392 201.677C235.598 197.347 245.894 202.274 247.237 211.532C247.535 212.577 247.535 213.771 247.535 215.563Z" fill="black" fill-opacity="0.1"/>
<path d="M20.5906 131.053C22.5303 125.08 24.0223 118.959 26.4097 113.135C28.2002 108.805 32.0795 107.312 35.6605 108.208C39.3907 109.104 41.4796 111.792 41.4796 116.868C41.6288 127.768 43.1209 138.22 48.4923 147.776C50.2828 151.061 52.3717 154.495 54.9083 157.033C57.4448 159.422 56.848 161.363 55.2067 163.304C52.2225 166.738 48.1939 167.784 43.7177 166.888C38.0478 165.693 33.87 162.259 30.5875 157.929C24.6192 150.165 21.7842 141.206 21.635 131.501C21.3366 131.202 21.0382 131.202 20.5906 131.053Z" fill="black" fill-opacity="0.1"/>
<path d="M1458.8 264.538C1457.61 256.923 1455.82 249.159 1455.22 241.395C1454.47 232.884 1459.4 226.314 1466.86 224.522C1474.17 222.731 1481.48 226.314 1485.36 233.63C1488.04 238.558 1491.18 252.444 1491.03 258.565C1480.44 260.506 1469.84 262.448 1458.8 264.538Z" fill="black" fill-opacity="0.1"/>
<path d="M1687.68 163.304C1674.85 163.155 1667.09 154.346 1669.33 142.699C1671.12 133.591 1678.73 127.917 1687.98 129.112C1689.47 129.261 1690.97 129.56 1692.31 130.008C1701.86 132.546 1707.83 140.459 1706.48 148.97C1705.29 157.481 1697.53 163.454 1687.68 163.304Z" fill="black" fill-opacity="0.1"/>
<path d="M833.771 236.915C833.621 246.62 825.713 254.534 816.164 254.384C806.913 254.235 799.751 246.62 799.9 237.214C800.05 227.508 807.808 219.893 817.358 220.043C826.609 220.043 833.92 227.508 833.771 236.915Z" fill="black" fill-opacity="0.1"/>
<path d="M213.814 371.744C219.633 372.341 225.452 372.789 231.122 373.835C237.09 374.88 240.821 379.21 240.671 384.137C240.522 389.214 236.643 393.245 230.525 394.141C220.081 395.485 210.084 393.693 200.535 389.064C196.954 387.273 194.716 384.436 195.163 380.255C195.611 376.074 198.595 373.835 202.474 373.088C206.205 372.341 210.084 372.192 213.814 371.744Z" fill="black" fill-opacity="0.1"/>
<path d="M552.664 164.947C550.127 164.499 547.591 164.349 545.054 163.603C541.175 162.259 538.638 159.571 538.34 155.241C538.042 151.21 540.131 147.477 544.01 145.835C546.397 144.79 548.934 144.192 551.47 143.894C556.842 143.147 562.213 142.55 567.585 142.102C569.524 141.953 571.613 142.102 573.702 142.55C579.223 143.446 582.505 146.432 583.102 150.762C583.55 154.793 581.013 159.422 575.791 160.915C568.331 163.006 560.423 164.051 552.813 165.544C552.813 165.245 552.813 165.096 552.664 164.947Z" fill="black" fill-opacity="0.1"/>
<path d="M328.107 250.054C319.453 250.054 312.44 243.037 312.589 234.675C312.739 226.164 320.05 219.445 329.301 219.296C337.955 219.296 344.371 225.567 344.221 234.078C344.072 243.037 336.91 250.204 328.107 250.054Z" fill="black" fill-opacity="0.1"/>
<path d="M877.637 180.325C876.891 181.968 875.996 185.999 873.609 188.239C869.58 192.121 864.806 195.406 860.031 198.243C856.45 200.184 852.571 199.288 849.586 196.302C846.155 193.017 845.259 188.836 847.199 184.656C850.631 177.339 856.002 171.516 863.463 168.231C870.625 165.245 877.787 170.62 877.637 180.325Z" fill="black" fill-opacity="0.1"/>
<path d="M605.334 420.868C605.334 428.93 598.918 435.351 590.861 435.351C582.655 435.351 575.94 428.781 576.089 420.718C576.239 412.805 582.804 406.384 590.861 406.384C598.918 406.384 605.334 412.805 605.334 420.868Z" fill="black" fill-opacity="0.1"/>
<path d="M1278.71 388.616C1278.56 396.978 1271.99 403.547 1263.79 403.547C1256.03 403.547 1249.91 397.575 1249.91 390.109C1249.91 382.046 1257.52 374.282 1265.28 374.282C1272.89 374.282 1278.86 380.703 1278.71 388.616Z" fill="black" fill-opacity="0.1"/>
<path d="M1270.2 2.04707C1263.19 2.04707 1256.92 -4.37336 1257.07 -11.6897C1257.07 -19.006 1263.64 -25.5757 1270.8 -25.5757C1277.81 -25.5757 1283.63 -19.7525 1283.63 -12.5855C1283.78 -4.8213 1277.51 2.04707 1270.2 2.04707Z" fill="black" fill-opacity="0.1"/>
<path d="M1905.97 362.636C1905.97 368.758 1903.89 372.341 1900.75 372.789C1896.43 373.386 1894.04 370.549 1892.84 367.115C1890.46 359.351 1888.67 351.437 1886.58 343.673C1886.13 341.732 1885.53 339.791 1885.23 337.701C1884.79 334.117 1886.28 331.28 1889.71 329.936C1892.99 328.593 1897.02 329.936 1898.07 333.669C1901.2 343.822 1903.74 354.125 1905.97 362.636Z" fill="black" fill-opacity="0.1"/>
<path d="M1886.43 376.522C1886.28 381.748 1881.95 384.435 1877.92 382.345C1876.43 381.599 1874.94 380.255 1873.9 379.06C1869.57 373.984 1865.09 368.758 1860.91 363.382C1857.78 359.351 1858.23 354.722 1861.51 352.184C1864.64 349.795 1869.27 350.542 1872.25 354.424C1876.43 360.098 1880.46 365.921 1884.34 371.744C1885.53 373.386 1885.98 375.477 1886.43 376.522Z" fill="black" fill-opacity="0.1"/>
<path d="M221.125 31.6108C224.109 32.5067 226.497 32.8053 228.436 33.9998C234.255 37.434 240.075 40.8682 245.595 44.7503C249.475 47.4379 250.221 51.3201 248.132 54.3063C246.192 57.2925 242.313 57.7405 238.284 55.5008C232.465 52.0666 226.795 48.4831 220.976 44.7503C219.484 43.8544 217.843 42.6599 217.246 41.1668C216.351 39.3751 215.754 36.8368 216.5 35.1943C217.246 33.5519 219.782 32.656 221.125 31.6108Z" fill="black" fill-opacity="0.1"/>
<path d="M1406.28 131.65C1411.8 131.65 1416.28 136.129 1416.13 141.803C1415.98 147.626 1411.35 152.404 1405.53 152.404C1400.01 152.404 1395.83 148.224 1395.69 142.699C1395.69 136.577 1400.31 131.799 1406.28 131.65Z" fill="black" fill-opacity="0.1"/>
<path d="M39.2416 9.06471C39.2416 14.4399 34.6161 18.9193 28.9463 18.9193C23.724 18.9193 19.6954 14.8879 19.6954 9.66196C19.5462 4.13741 24.1716 -0.341954 29.6923 -0.341954C34.9146 -0.491266 39.2416 3.83878 39.2416 9.06471Z" fill="black" fill-opacity="0.1"/>
</g>
<g filter="url(#filter0_f_34_739)">
<ellipse cx="175.5" cy="660.165" rx="524.5" ry="514.78" fill="url(#paint0_radial_34_739)" fill-opacity="0.3"/>
</g>
<g filter="url(#filter1_f_34_739)">
<ellipse cx="1795.5" cy="179.011" rx="524.5" ry="515.275" fill="url(#paint1_radial_34_739)" fill-opacity="0.2"/>
</g>
<defs>
<filter id="filter0_f_34_739" x="-863" y="-368.615" width="2077" height="2057.56" filterUnits="userSpaceOnUse" color-interpolation-filters="sRGB">
<feFlood flood-opacity="0" result="BackgroundImageFix"/>
<feBlend mode="normal" in="SourceGraphic" in2="BackgroundImageFix" result="shape"/>
<feGaussianBlur stdDeviation="257" result="effect1_foregroundBlur_34_739"/>
</filter>
<filter id="filter1_f_34_739" x="757" y="-850.264" width="2077" height="2058.55" filterUnits="userSpaceOnUse" color-interpolation-filters="sRGB">
<feFlood flood-opacity="0" result="BackgroundImageFix"/>
<feBlend mode="normal" in="SourceGraphic" in2="BackgroundImageFix" result="shape"/>
<feGaussianBlur stdDeviation="257" result="effect1_foregroundBlur_34_739"/>
</filter>
<radialGradient id="paint0_radial_34_739" cx="0" cy="0" r="1" gradientUnits="userSpaceOnUse" gradientTransform="translate(299.5 407.437) rotate(99.1775) scale(777.461 791.4)">
<stop stop-color="#2956BB"/>
<stop offset="1" stop-color="#9529BB" stop-opacity="0"/>
</radialGradient>
<radialGradient id="paint1_radial_34_739" cx="0" cy="0" r="1" gradientUnits="userSpaceOnUse" gradientTransform="translate(1919.5 -73.9599) rotate(99.1688) scale(778.188 791.42)">
<stop stop-color="#29BBBB"/>
<stop offset="1" stop-color="#5729BB" stop-opacity="0"/>
</radialGradient>
<clipPath id="clip0_34_739">
<rect width="1920" height="1335" fill="white" transform="translate(0 -118)"/>
</clipPath>
</defs>
</svg>
